<?xml version="1.0" standalone="no"?>
<!DOCTYPE svg PUBLIC "-//W3C//DTD SVG 20010904//EN"
 "http://www.w3.org/TR/2001/REC-SVG-20010904/DTD/svg10.dtd">
<svg version="1.0" xmlns="http://www.w3.org/2000/svg"
 width="466.000000pt" height="250.000000pt" viewBox="0 0 466.000000 250.000000"
 preserveAspectRatio="xMidYMid meet">

<g transform="translate(0.000000,250.000000) scale(0.100000,-0.100000)"
fill="#000000" stroke="none">
<path d="M0 1250 l0 -1250 743 1 c550 0 736 3 717 11 -106 47 -215 104 -270
140 -92 60 -181 153 -216 224 l-29 59 -3 367 -3 367 -52 20 c-683 258 -824
314 -840 332 -22 27 -22 61 1 87 10 12 417 183 1007 423 545 221 1026 417
1070 435 l80 33 -1102 1 -1103 0 0 -1250z"/>
<path d="M2301 2496 c2 -2 481 -198 1063 -435 583 -237 1068 -439 1078 -448
19 -17 24 -63 9 -92 -6 -10 -70 -40 -150 -71 l-141 -53 0 -284 c0 -207 3 -283
12 -283 23 0 79 -52 100 -93 24 -48 29 -138 8 -177 -7 -14 -28 -41 -47 -61
l-34 -36 50 -80 c56 -87 61 -109 32 -144 -19 -24 -23 -24 -189 -24 -153 0
-172 2 -191 19 -34 30 -26 70 27 155 l48 76 -29 24 c-46 38 -70 103 -65 171 5
70 34 117 95 156 l43 27 0 248 c0 137 -1 249 -2 249 -2 0 -104 -40 -228 -88
l-225 -87 -5 -360 -5 -360 -26 -55 c-62 -132 -237 -269 -469 -366 l-55 -23
828 -1 827 0 0 1250 0 1250 -1182 0 c-650 0 -1179 -2 -1177 -4z"/>
<path d="M1273 1963 l-972 -397 986 -374 986 -373 946 367 c520 201 952 370
959 374 8 4 -35 27 -110 57 -180 75 -1801 735 -1813 739 -5 1 -447 -175 -982
-393z"/>
<path d="M1080 803 c0 -302 1 -309 24 -358 95 -202 541 -391 1006 -425 458
-33 978 108 1207 328 94 90 93 85 93 442 0 170 -3 310 -6 310 -3 0 -255 -97
-560 -215 -305 -118 -562 -215 -572 -215 -9 0 -278 99 -596 220 -319 121 -583
220 -588 220 -4 0 -8 -138 -8 -307z"/>
<path d="M4045 685 c-14 -13 -25 -33 -25 -45 0 -29 35 -60 68 -60 60 0 83 72
36 109 -34 27 -50 26 -79 -4z"/>
</g>
</svg>
